<?xml version="1.0" encoding="UTF-8" standalone="no"?><!DOCTYPE svg PUBLIC "-//W3C//DTD SVG 1.1//EN" "http://www.w3.org/Graphics/SVG/1.1/DTD/svg11.dtd"><svg width="100%" height="100%" viewBox="0 0 512 512" version="1.1" xmlns="http://www.w3.org/2000/svg" xmlns:xlink="http://www.w3.org/1999/xlink" xml:space="preserve" xmlns:serif="http://www.serif.com/" style="fill-rule:evenodd;clip-rule:evenodd;stroke-linejoin:round;stroke-miterlimit:1.41421;"><g><path d="M512,256.052c0,-33.917 -42.475,-66.061 -107.597,-85.994c15.028,-66.374 8.349,-119.182 -21.081,-136.088c-6.784,-3.966 -14.715,-5.844 -23.377,-5.844l0,23.272c4.8,0 8.662,0.94 11.897,2.714c14.193,8.14 20.35,39.135 15.55,79.002c-1.148,9.81 -3.027,20.142 -5.323,30.682c-20.455,-5.009 -42.788,-8.871 -66.27,-11.375c-14.088,-19.307 -28.699,-36.84 -43.414,-52.181c34.022,-31.622 65.957,-48.946 87.664,-48.946l0,-23.273c-28.7,0 -66.27,20.455 -104.258,55.938c-37.987,-35.274 -75.558,-55.52 -104.257,-55.52l0,23.272c21.603,0 53.642,17.22 87.664,48.633c-14.611,15.341 -29.222,32.77 -43.102,52.077c-23.586,2.504 -45.919,6.366 -66.374,11.48c-2.4,-10.437 -4.175,-20.56 -5.427,-30.265c-4.905,-39.867 1.148,-70.862 15.237,-79.107c3.131,-1.878 7.201,-2.713 12.002,-2.713l0,-23.273c-8.767,0 -16.698,1.879 -23.586,5.844c-29.326,16.907 -35.901,69.61 -20.768,135.775c-64.913,20.038 -107.18,52.077 -107.18,85.89c0,33.918 42.475,66.061 107.597,85.994c-15.028,66.375 -8.349,119.182 21.081,136.089c6.784,3.965 14.715,5.844 23.482,5.844c28.699,0 66.27,-20.455 104.257,-55.938c37.988,35.274 75.559,55.52 104.258,55.52c8.767,0 16.698,-1.878 23.586,-5.844c29.326,-16.907 35.9,-69.609 20.768,-135.775c64.704,-19.933 106.971,-52.077 106.971,-85.89Zm-135.879,-69.609c-3.862,13.462 -8.662,27.343 -14.089,41.223c-4.279,-8.349 -8.767,-16.698 -13.672,-25.047c-4.8,-8.349 -9.914,-16.489 -15.028,-24.421c14.82,2.192 29.117,4.905 42.789,8.245Zm-47.798,111.145c-8.14,14.089 -16.489,27.447 -25.151,39.867c-15.55,1.356 -31.309,2.087 -47.172,2.087c-15.759,0 -31.517,-0.731 -46.963,-1.983c-8.662,-12.419 -17.115,-25.673 -25.256,-39.658c-7.931,-13.671 -15.132,-27.551 -21.707,-41.536c6.471,-13.984 13.776,-27.969 21.603,-41.64c8.14,-14.089 16.489,-27.447 25.151,-39.866c15.55,-1.357 31.309,-2.088 47.172,-2.088c15.759,0 31.517,0.731 46.963,1.983c8.662,12.419 17.115,25.673 25.256,39.658c7.931,13.671 15.132,27.551 21.707,41.536c-6.575,13.984 -13.776,27.969 -21.603,41.64Zm33.709,-13.567c5.635,13.985 10.436,27.969 14.402,41.536c-13.672,3.34 -28.074,6.158 -42.997,8.349c5.113,-8.036 10.227,-16.28 15.028,-24.734c4.8,-8.349 9.288,-16.802 13.567,-25.151Zm-105.823,111.354c-9.706,-10.018 -19.412,-21.185 -29.013,-33.395c9.393,0.417 18.994,0.73 28.7,0.73c9.81,0 19.515,-0.209 29.012,-0.73c-9.392,12.21 -19.098,23.377 -28.699,33.395Zm-77.646,-61.469c-14.819,-2.191 -29.117,-4.905 -42.788,-8.244c3.861,-13.463 8.662,-27.343 14.089,-41.223c4.279,8.349 8.766,16.698 13.671,25.047c4.905,8.348 9.915,16.489 15.028,24.42Zm77.124,-217.177c9.706,10.019 19.411,21.185 29.013,33.396c-9.393,-0.418 -18.994,-0.731 -28.7,-0.731c-9.81,0 -19.516,0.209 -29.013,0.731c9.393,-12.211 19.099,-23.377 28.7,-33.396Zm-77.228,61.469c-5.114,8.036 -10.227,16.281 -15.028,24.734c-4.801,8.349 -9.288,16.698 -13.567,25.047c-5.636,-13.985 -10.436,-27.969 -14.402,-41.536c13.671,-3.235 28.073,-6.053 42.997,-8.245Zm-94.448,130.661c-36.944,-15.758 -60.843,-36.422 -60.843,-52.807c0,-16.385 23.899,-37.153 60.843,-52.807c8.976,-3.861 18.786,-7.305 28.909,-10.541c5.948,20.455 13.775,41.745 23.481,63.557c-9.601,21.707 -17.324,42.893 -23.168,63.243c-10.332,-3.235 -20.142,-6.783 -29.222,-10.645Zm56.147,149.134c-14.193,-8.141 -20.35,-39.136 -15.55,-79.002c1.148,-9.81 3.027,-20.142 5.323,-30.683c20.455,5.01 42.788,8.871 66.27,11.376c14.088,19.307 28.699,36.839 43.414,52.181c-34.022,31.621 -65.957,48.945 -87.664,48.945c-4.696,-0.104 -8.662,-1.043 -11.793,-2.817Zm247.547,-79.524c4.905,39.866 -1.148,70.862 -15.237,79.106c-3.131,1.879 -7.201,2.714 -12.002,2.714c-21.603,0 -53.642,-17.22 -87.664,-48.633c14.611,-15.341 29.222,-32.77 43.102,-52.077c23.586,-2.504 45.919,-6.366 66.374,-11.48c2.4,10.541 4.279,20.664 5.427,30.37Zm40.179,-69.61c-8.975,3.862 -18.785,7.306 -28.908,10.541c-5.949,-20.455 -13.776,-41.745 -23.482,-63.557c9.602,-21.707 17.325,-42.892 23.169,-63.243c10.332,3.235 20.142,6.784 29.326,10.645c36.944,15.759 60.843,36.422 60.843,52.807c-0.105,16.385 -24.004,37.153 -60.948,52.807Z" style="fill:#61dafb;fill-rule:nonzero;"/><circle cx="255.896" cy="256.052" r="47.693" style="fill:#61dafb;"/></g></svg>