<?xml version="1.0" encoding="UTF-8" standalone="no"?><!DOCTYPE svg PUBLIC "-//W3C//DTD SVG 1.1//EN" "http://www.w3.org/Graphics/SVG/1.1/DTD/svg11.dtd"><svg width="100%" height="100%" viewBox="0 0 1024 1024" version="1.1" xmlns="http://www.w3.org/2000/svg" xmlns:xlink="http://www.w3.org/1999/xlink" xml:space="preserve" xmlns:serif="http://www.serif.com/" style="fill-rule:evenodd;clip-rule:evenodd;stroke-linejoin:round;stroke-miterlimit:2;"><g><path d="M918.674,883.566l-813.348,0c-58.515,0 -105.326,-46.812 -105.326,-105.326l0,-532.48c0,-58.514 46.811,-105.326 105.326,-105.326l813.348,0c58.515,0 105.326,46.812 105.326,105.326l0,532.48c0,58.514 -46.811,105.326 -105.326,105.326Zm-813.348,-653.897c-8.777,0 -16.092,7.314 -16.092,16.091l0,532.48c0,8.777 7.315,16.091 16.092,16.091l813.348,0c8.777,0 16.092,-7.314 16.092,-16.091l0,-532.48c0,-8.777 -7.315,-16.091 -16.092,-16.091l-813.348,0Z" style="fill:#fff;fill-rule:nonzero;"/><path d="M918.674,861.623l-813.348,0c-33.646,0 -65.829,-21.943 -77.532,-54.126c-2.925,-8.777 -1.463,-19.017 5.852,-24.868l317.44,-282.332c8.777,-8.777 23.405,-7.314 32.183,1.463c8.777,8.777 7.314,23.406 -1.463,32.183l-304.275,269.166c7.315,7.314 17.555,13.165 27.795,13.165l813.348,0c10.24,0 20.48,-4.388 27.795,-11.703l-307.2,-273.554c-8.778,-8.777 -10.24,-21.943 -1.463,-32.183c8.777,-8.777 21.943,-10.24 32.183,-1.463l320.365,286.72c7.315,5.852 8.777,16.092 5.852,24.869c-11.703,30.72 -43.886,52.663 -77.532,52.663Z" style="fill:#fff;fill-rule:nonzero;"/><path d="M512,659.749c-5.851,0 -10.24,-1.463 -14.629,-5.852l-463.725,-412.526c-7.315,-5.851 -8.777,-16.091 -5.852,-24.868c11.703,-32.183 43.886,-54.126 77.532,-54.126l813.348,0c33.646,0 65.829,21.943 77.532,54.126c2.925,8.777 1.463,19.017 -5.852,24.868l-463.725,412.526c-4.389,4.389 -8.778,5.852 -14.629,5.852Zm-434.469,-438.858l434.469,386.195l434.469,-387.657c-7.315,-7.315 -17.555,-11.703 -27.795,-11.703l-813.348,0c-10.24,0 -20.48,4.388 -27.795,13.165Z" style="fill:#fff;fill-rule:nonzero;"/></g></svg>