<?xml version="1.0" encoding="UTF-8" standalone="no"?><!DOCTYPE svg PUBLIC "-//W3C//DTD SVG 1.1//EN" "http://www.w3.org/Graphics/SVG/1.1/DTD/svg11.dtd"><svg width="100%" height="100%" viewBox="0 0 1024 1024" version="1.1" xmlns="http://www.w3.org/2000/svg" xmlns:xlink="http://www.w3.org/1999/xlink" xml:space="preserve" xmlns:serif="http://www.serif.com/" style="fill-rule:evenodd;clip-rule:evenodd;stroke-linejoin:round;stroke-miterlimit:2;"><path d="M512,12.066c-282.331,0 -512,229.668 -512,512c0,226.743 146.286,418.377 349.623,485.668c24.868,4.389 35.108,-11.703 35.108,-24.868l0,-95.086c-141.897,30.72 -172.617,-59.977 -172.617,-59.977c-23.405,-58.514 -57.051,-74.606 -57.051,-74.606c-46.812,-32.183 2.926,-30.72 2.926,-30.72c51.2,2.926 78.994,52.663 78.994,52.663c45.348,78.994 119.954,55.589 149.211,42.423c4.389,-33.646 17.555,-55.589 32.183,-68.754c-114.103,-13.166 -232.594,-57.052 -232.594,-253.075c0,-55.588 20.48,-100.937 52.663,-137.508c-5.852,-13.166 -23.406,-64.366 4.388,-136.046c0,0 42.423,-13.166 140.435,52.663c40.96,-11.703 84.845,-17.554 128.731,-17.554c43.886,0 87.771,5.851 128.731,17.554c98.012,-65.829 140.435,-52.663 140.435,-52.663c27.794,70.217 10.24,122.88 4.388,136.046c32.183,36.571 52.663,81.92 52.663,137.508c0,196.023 -119.954,239.909 -234.057,253.075c19.017,16.091 35.109,46.811 35.109,95.085l0,140.435c0,13.165 8.777,29.257 35.108,24.868c203.337,-70.217 349.623,-261.851 349.623,-487.131c0,-283.795 -229.669,-512 -512,-512Z" style="fill:#fff;fill-rule:nonzero;"/></svg>