<?xml version="1.0" encoding="UTF-8" standalone="no"?>
<!DOCTYPE svg PUBLIC "-//W3C//DTD SVG 1.1//EN" "http://www.w3.org/Graphics/SVG/1.1/DTD/svg11.dtd">
<svg width="100%" height="100%" viewBox="0 0 1200 1200" version="1.1" xmlns="http://www.w3.org/2000/svg" xmlns:xlink="http://www.w3.org/1999/xlink" xml:space="preserve" xmlns:serif="http://www.serif.com/" style="fill-rule:evenodd;clip-rule:evenodd;stroke-linejoin:round;stroke-miterlimit:2;">
    <g transform="matrix(2.18662,0,0,2.18662,-37.6313,-117.079)">
        <g transform="matrix(1,0,0,1,385.42,141.051)">
            <path d="M0,263.638L21.375,247.164L35.238,220.014L43.325,202.107L44.48,177.846L39.646,158.319L38.152,134.41L38.427,120.171L36.871,127.152L32.602,143.803L26.838,102.388L20.007,91.501L23.422,50.087L17.872,32.368L17.231,48.806L9.546,87.659L-5.414,58.74L-14.35,14.876L-41.866,-5.491L-27.346,13.252L-20.848,33.559L-28.158,22.187L-49.277,12.439L-69.585,1.88L-81.77,-26.55L-85.019,-11.117L-69.585,20.562L-71.209,32.746L-80.957,56.303L-110.199,76.61L-163.701,85.317L-159.045,79.628L-155.942,58.939L-160.597,50.664L-166.287,39.285L-176.113,22.218L-172.719,-0.35L-183.872,14.46L-189.561,36.182L-192.146,82.731L-204.841,35.071L-214.387,78.076L-211.8,109.108L-208.18,128.245L-219.041,143.244L-222.662,173.242L-221.21,206.874L-204.757,229.846L-183.028,244.436L-168.748,245.057L-157.017,260.801L-145.517,261.776L-132.458,262.166L-122.663,272.159L-104.291,290.188L-89.442,290.07L-73.272,289.946L-55.151,272.09L-46.184,263.633L-32.187,263.231L0,263.638Z" style="fill:rgb(76,88,167);fill-rule:nonzero;"/>
        </g>
        <g transform="matrix(1,0,0,1,105.872,410.389)">
            <path d="M0,-92.631L32.085,-84.527L43.791,-57.886L34.027,0L16.068,-15.124L-0.945,-60.494L0,-92.631Z" style="fill:rgb(76,88,167);fill-rule:nonzero;"/>
        </g>
        <g transform="matrix(1,0,0,1,489.653,404.717)">
            <path d="M0,-86.959L-32.137,-78.452L-43.479,-51.986L-35.918,0L-17.959,-10.397L0.945,-54.822L0,-86.959Z" style="fill:rgb(76,88,167);fill-rule:nonzero;"/>
        </g>
        <g transform="matrix(1,0,0,1,402.716,285.692)">
            <path d="M0,12.935L10.294,1.817L-15.646,-16.3L-51.883,-13.83L-97.353,7.411L-79.646,29.235L-64.592,5.884L-32.652,-3.909L0,12.935Z" style="fill:rgb(39,41,106);fill-rule:nonzero;"/>
        </g>
        <g transform="matrix(1,0,0,1,270.015,269.392)">
            <path d="M0,45.535L17.706,23.711L-27.764,2.471L-63.999,0L-89.941,18.118L-79.646,29.235L-46.994,12.391L-15.054,22.184L0,45.535Z" style="fill:rgb(39,41,106);fill-rule:nonzero;"/>
        </g>
        <g transform="matrix(1,0,0,1,323.069,328.452)">
            <path d="M0,-13.525L3.473,-18.906L24.618,-10.099L49.412,-11.77L70.245,-24.782L79.646,-29.825L73.357,0.529L50.184,16.3L19.285,12.437L0,-13.525Z" style="fill:rgb(52,61,136);fill-rule:nonzero;"/>
        </g>
        <g transform="matrix(1,0,0,1,270.015,328.452)">
            <path d="M0,-13.525L-3.493,-18.905L-24.618,-10.099L-49.412,-11.77L-70.245,-24.782L-79.646,-29.825L-73.357,0.529L-50.184,16.3L-19.285,12.437L0,-13.525Z" style="fill:rgb(52,61,136);fill-rule:nonzero;"/>
        </g>
        <g transform="matrix(1,0,0,1,178.42,387.767)">
            <path d="M0,105.337L5.283,85.166L4.322,47.227L-18.25,21.293L-28.757,-35.265L-38.521,22.621L-42.262,76.522L10.807,140.602L0,105.337Z" style="fill:rgb(92,126,191);fill-rule:nonzero;"/>
        </g>
        <g transform="matrix(1,0,0,1,453.735,486.484)">
            <path d="M0,-81.767L-7.562,-133.753L-18.069,-77.196L-40.292,-48.765L-41.252,-10.826L-24.158,8.665L-32.5,51.986L-15.149,39.22L6.233,-19.311L6.505,-19.139L16.042,-44.904L17.959,-92.164L0,-81.767Z" style="fill:rgb(92,126,191);fill-rule:nonzero;"/>
        </g>
        <g transform="matrix(1,0,0,1,171.752,146.852)">
            <path d="M0,69.06L-3.749,0L8.827,29.271L0,69.06Z" style="fill:rgb(92,126,191);fill-rule:nonzero;"/>
        </g>
        <g transform="matrix(0.957583,-0.288158,-0.288158,-0.957583,104.796,187.449)">
            <path d="M-12.405,20.649L72.344,20.649L134.372,64.654L118.296,90.883L-12.405,20.649Z" style="fill:rgb(121,147,203);fill-rule:nonzero;"/>
        </g>
        <g transform="matrix(1,0,0,1,86.9679,267.661)">
            <path d="M0,-96.411L36.946,-32.904L-14.178,0L0,-96.411Z" style="fill:rgb(121,147,203);fill-rule:nonzero;"/>
        </g>
        <g transform="matrix(1,0,0,1,393.156,156.741)">
            <path d="M0,-52.668L52.615,-55.835L101.196,3.167L0,-52.668Z" style="fill:rgb(121,147,203);fill-rule:nonzero;"/>
        </g>
        <g transform="matrix(1,0,0,1,494.353,250.648)">
            <path d="M0,-90.74L16.069,0L-39.219,-29.263L0,-90.74Z" style="fill:rgb(121,147,203);fill-rule:nonzero;"/>
        </g>
        <g transform="matrix(1,0,0,1,214.69,83.9614)">
            <path d="M0,2.687L101.963,-28.026L178.919,19.953L134.62,12.159L89.084,30.713L0,2.687Z" style="fill:rgb(121,147,203);fill-rule:nonzero;"/>
        </g>
        <g transform="matrix(1,0,0,1,123.914,352.503)">
            <path d="M0,-117.745L40.28,-46.016L28.171,-30.274L25.749,0L14.043,-26.641L-18.25,-34.31L0,-117.745Z" style="fill:rgb(121,147,203);fill-rule:nonzero;"/>
        </g>
        <g transform="matrix(1,0,0,1,208.645,145.492)">
            <path d="M0,17.13L9.491,-34.121L6.045,-58.843L43.479,8.373L17.558,75.973L19.643,55.76L0,17.13Z" style="fill:rgb(121,147,203);fill-rule:nonzero;"/>
        </g>
        <g transform="matrix(-0.132382,-0.991199,-0.991199,0.132382,434.461,149.677)">
            <path d="M-19.363,34.434L50.767,34.434L2.661,11.253L-38.091,31.16L-19.363,34.434Z" style="fill:rgb(121,147,203);fill-rule:nonzero;"/>
        </g>
        <g transform="matrix(1,0,0,1,269.182,531.075)">
            <path d="M0,10.727L-23.31,16.51L-35.165,11.077L-54.922,-22.511L-67.117,-38.482L-85.479,-58.141L-90.762,-37.97L-79.955,-2.706L-63.319,18.98L-30.225,40.219L10.772,68.868L32.505,56.025L0,10.727Z" style="fill:rgb(121,147,203);fill-rule:nonzero;"/>
        </g>
        <g transform="matrix(0.117779,-0.99304,-0.99304,-0.117779,238.79,527.637)">
            <path d="M42.781,19.33L73.091,19.33L29.868,-47.193L-10.486,-31.849L42.781,19.33Z" style="fill:rgb(121,147,203);fill-rule:nonzero;"/>
        </g>
        <g transform="matrix(1,0,0,1,412.956,599.429)">
            <path d="M0,-123.771L-10.867,-103.121L-20.512,-85.446L-50.314,-54.554L-69.266,-50.54L-97.421,-48.07L-111.269,-12.33L-73.617,0L-49.455,-19.037L-12.708,-45.353L8.279,-60.959L16.621,-104.281L0,-123.771Z" style="fill:rgb(121,147,203);fill-rule:nonzero;"/>
        </g>
        <g transform="matrix(1,0,0,1,406.795,456.279)">
            <path d="M0,-68.063L-21.375,-51.589L-67.589,-52.368L-94.647,-25.282L-32.646,0L6.648,-18.56L0,-68.063Z" style="fill:rgb(121,147,203);fill-rule:nonzero;"/>
        </g>
        <g transform="matrix(-0.231462,-0.972844,-0.972844,0.231462,300.823,465.251)">
            <path d="M-32.628,-73.411L-8.243,-73.411L-34.548,20.197L-87.175,5.618L-32.628,-73.411Z" style="fill:rgb(121,147,203);fill-rule:nonzero;"/>
        </g>
        <g transform="matrix(1,0,0,1,252.962,420.459)">
            <path d="M0,-17.241L-24.56,-18.606L-36.291,-34.35L-50.57,-34.971L-72.3,-49.561L-70.22,14.535L-24.759,32.32L28.167,10.78L0,-17.241Z" style="fill:rgb(121,147,203);fill-rule:nonzero;"/>
        </g>
        <g transform="matrix(1,0,0,1,423.847,286.426)">
            <path d="M0,-25.204L33.67,39.838L31.287,-65.042L0,-25.204Z" style="fill:rgb(121,147,203);fill-rule:nonzero;"/>
        </g>
        <g transform="matrix(1,0,0,1,379.793,509.077)">
            <path d="M0,-29.076L-64.258,42.282L-36.103,39.813L-17.151,35.798L12.651,4.906L33.163,-33.419L33.65,-71.358L-5.644,-52.798L0,-29.076Z" style="fill:rgb(168,188,225);fill-rule:nonzero;"/>
        </g>
        <g transform="matrix(0.482781,0.875741,0.875741,-0.482781,327.41,522.355)">
            <path d="M-34.941,-24.402L19.667,-24.402L44.281,-53.783L-11.08,-60.381L-34.941,-24.402Z" style="fill:rgb(168,188,225);fill-rule:nonzero;"/>
        </g>
        <g transform="matrix(1,0,0,1,224.633,499.701)">
            <path d="M0,-16.823L44.549,42.101L21.239,47.884L9.385,42.45L-10.373,8.863L-22.568,-7.108L-40.93,-26.767L-41.89,-64.707L3.57,-46.923L0,-16.823Z" style="fill:rgb(168,188,225);fill-rule:nonzero;"/>
        </g>
        <g transform="matrix(1,0,0,1,228.203,481.755)">
            <path d="M0,-28.977L60.968,21.781L145.946,-25.476L83.944,-50.758L52.926,-50.516L0,-28.977Z" style="fill:rgb(168,188,225);fill-rule:nonzero;"/>
        </g>
        <g transform="matrix(1,0,0,1,423.572,423.479)">
            <path d="M0,-148.018L1.494,-124.109L6.328,-104.582L5.173,-80.321L-16.777,-35.264L-10.129,14.239L12.094,-14.191L22.602,-70.749L33.944,-97.215L0.274,-162.257L0,-148.018Z" style="fill:rgb(168,188,225);fill-rule:nonzero;"/>
        </g>
        <g transform="matrix(0.883828,0.467811,0.467811,-0.883828,482.877,214.544)">
            <path d="M-21.321,-19.024L41.235,-19.024L54.274,-88.053L29.85,-110.605L-21.321,-19.024Z" style="fill:rgb(168,188,225);fill-rule:nonzero;"/>
        </g>
        <g transform="matrix(1,0,0,1,418.022,103.915)">
            <path d="M0,180.94L5.825,157.308L37.112,117.47L76.331,55.993L-24.412,0L4.935,44.614L-9.18,87.224L-12.595,128.638L-5.764,139.525L0,180.94Z" style="fill:rgb(168,188,225);fill-rule:nonzero;"/>
        </g>
        <g transform="matrix(1,0,0,1,303.65,210.33)">
            <path d="M0,-95.829L12.185,-67.399L32.492,-56.839L53.611,-47.092L60.922,-35.72L54.424,-56.027L39.903,-74.77L67.42,-54.402L76.355,-10.539L91.315,18.38L99.001,-20.473L99.642,-36.911L89.959,-106.415L45.659,-114.209L0,-95.829Z" style="fill:rgb(168,188,225);fill-rule:nonzero;"/>
        </g>
        <g transform="matrix(0.848585,0.529059,0.529059,-0.848585,339.12,25.4119)">
            <path d="M-2.917,-37.788L87.771,-37.788L130.443,-7.639L105.613,0.98L-2.917,-37.788Z" style="fill:rgb(168,188,225);fill-rule:nonzero;"/>
        </g>
        <g transform="matrix(1,0,0,1,214.69,226.368)">
            <path d="M0,-139.72L88.96,-111.867L85.711,-96.434L101.145,-64.755L99.521,-52.571L89.773,-29.014L60.531,-8.707L7.029,0L11.685,-5.689L37.434,-72.504L0,-139.72Z" style="fill:rgb(168,188,225);fill-rule:nonzero;"/>
        </g>
        <g transform="matrix(1,0,0,1,191.886,76.251)">
            <path d="M0,-9.919L22.804,10.397L124.767,-20.316L0,-9.919Z" style="fill:rgb(168,188,225);fill-rule:nonzero;"/>
        </g>
        <g transform="matrix(1,0,0,1,214.69,223.782)">
            <path d="M0,-137.134L-46.687,-76.93L-34.111,-47.66L-21.417,0L-18.831,-46.549L-13.142,-68.271L-1.989,-83.081L3.446,-112.412L0,-137.134Z" style="fill:rgb(168,188,225);fill-rule:nonzero;"/>
        </g>
        <g transform="matrix(1,0,0,1,168.003,305.811)">
            <path d="M0,-158.959L-81.035,-134.561L-4.21,0L-1.625,-21.516L9.237,-36.515L5.617,-55.651L0,-158.959Z" style="fill:rgb(168,188,225);fill-rule:nonzero;"/>
        </g>
        <g transform="matrix(-0.840895,0.541199,0.541199,0.840895,108.012,354.57)">
            <path d="M-78.214,-92.143L-17.416,-92.143L0.064,-5.601L-18.123,-32.113L-78.214,-92.143Z" style="fill:rgb(168,188,225);fill-rule:nonzero;"/>
        </g>
        <g transform="matrix(1,0,0,1,163.793,434.994)">
            <path d="M0,-129.183L-11.708,-112.765L-14.129,-82.491L-3.622,-25.933L18.95,0L16.87,-64.097L0.417,-87.068L0,-129.183Z" style="fill:rgb(168,188,225);fill-rule:nonzero;"/>
        </g>
    </g>
</svg>
