<?xml version="1.0" encoding="UTF-8" standalone="no"?>
<!DOCTYPE svg PUBLIC "-//W3C//DTD SVG 1.1//EN" "http://www.w3.org/Graphics/SVG/1.1/DTD/svg11.dtd">
<svg width="100%" height="100%" viewBox="0 0 1024 1024" version="1.1" xmlns="http://www.w3.org/2000/svg" xmlns:xlink="http://www.w3.org/1999/xlink" xml:space="preserve" xmlns:serif="http://www.serif.com/" style="fill-rule:evenodd;clip-rule:evenodd;stroke-linejoin:round;stroke-miterlimit:2;">
    <g transform="matrix(4.096,0,0,4.096,-307.2,-307.202)">
        <path d="M153.623,301.589C247.967,301.589 299.559,223.428 299.559,155.653C299.559,153.432 299.514,151.221 299.412,149.022C309.426,141.783 318.132,132.75 325,122.465C315.809,126.547 305.919,129.299 295.544,130.539C306.134,124.191 314.264,114.143 318.098,102.167C308.186,108.042 297.213,112.315 285.53,114.616C276.171,104.647 262.841,98.412 248.091,98.412C219.763,98.412 196.792,121.382 196.792,149.699C196.792,153.725 197.243,157.638 198.122,161.394C155.495,159.251 117.695,138.84 92.4,107.805C87.991,115.383 85.453,124.191 85.453,133.584C85.453,151.38 94.509,167.089 108.278,176.279C99.865,176.02 91.96,173.708 85.047,169.862C85.036,170.076 85.036,170.291 85.036,170.516C85.036,195.36 102.719,216.098 126.186,220.801C121.879,221.973 117.345,222.605 112.665,222.605C109.361,222.605 106.147,222.278 103.023,221.68C109.553,242.058 128.487,256.887 150.939,257.305C133.381,271.062 111.267,279.26 87.235,279.26C83.096,279.26 79.014,279.024 75,278.55C97.7,293.097 124.653,301.589 153.623,301.589Z" style="fill:white;fill-rule:nonzero;"/>
    </g>
</svg>
