<?xml version="1.0" encoding="UTF-8" standalone="no"?><!DOCTYPE svg PUBLIC "-//W3C//DTD SVG 1.1//EN" "http://www.w3.org/Graphics/SVG/1.1/DTD/svg11.dtd"><svg width="100%" height="100%" viewBox="0 0 1024 1024" version="1.1" xmlns="http://www.w3.org/2000/svg" xmlns:xlink="http://www.w3.org/1999/xlink" xml:space="preserve" xmlns:serif="http://www.serif.com/" style="fill-rule:evenodd;clip-rule:evenodd;stroke-linejoin:round;stroke-miterlimit:2;"><path d="M322.04,928.107c386.433,-0 597.754,-320.148 597.754,-597.754c-0,-9.098 -0.185,-18.154 -0.603,-27.161c41.018,-29.651 76.678,-66.65 104.809,-108.777c-37.646,16.719 -78.156,27.992 -120.652,33.071c43.377,-26.002 76.677,-67.158 92.381,-116.212c-40.599,24.064 -85.545,41.566 -133.398,50.991c-38.335,-40.833 -92.934,-66.372 -153.35,-66.372c-116.032,0 -210.121,94.086 -210.121,210.072c0,16.491 1.847,32.518 5.448,47.903c-174.601,-8.778 -329.429,-92.381 -433.038,-219.501c-18.059,31.04 -28.455,67.117 -28.455,105.591c0,72.892 37.094,137.237 93.492,174.879c-34.46,-1.061 -66.839,-10.531 -95.155,-26.284c-0.045,0.876 -0.045,1.757 -0.045,2.679c0,101.761 72.43,186.703 168.551,205.967c-17.642,4.8 -36.213,7.389 -55.382,7.389c-13.533,0 -26.698,-1.339 -39.494,-3.789c26.747,83.469 104.301,144.208 196.264,145.92c-71.917,56.349 -162.496,89.928 -260.931,89.928c-16.954,-0 -33.674,-0.967 -50.115,-2.908c92.979,59.584 203.379,94.368 322.04,94.368Z" style="fill:#fff;fill-rule:nonzero;"/></svg>